<svg xmlns="http://www.w3.org/2000/svg" viewBox="0 0 200 260" width="200" height="260">
  <!-- body + safety vest -->
  <path d="M40 260 C40 190 60 170 100 170 C140 170 160 190 160 260 Z" fill="#2f5f8f"/>
  <path d="M68 175 L100 260 L132 175 C124 172 112 170 100 170 C88 170 76 172 68 175 Z" fill="#f28c1e"/>
  <path d="M78 200 L122 200 M74 222 L126 222" stroke="#f6e27a" stroke-width="6"/>
  <!-- head -->
  <circle cx="100" cy="115" r="48" fill="#f1c9a5"/>
  <!-- hard hat -->
  <path d="M50 102 C50 62 150 62 150 102 Z" fill="#f5c400"/>
  <rect x="42" y="98" width="116" height="12" rx="6" fill="#e0b000"/>
  <rect x="94" y="64" width="12" height="36" rx="5" fill="#e0b000"/>
  <path d="M76 118 Q82 111 88 118 M112 118 Q118 111 124 118" stroke="#222" stroke-width="4" fill="none" stroke-linecap="round"/><path d="M82 134 Q100 154 118 134" stroke="#7a3b2e" stroke-width="4" fill="#fff" stroke-linecap="round"/>
  <g transform="translate(118 196) rotate(-8)">
    <rect width="46" height="58" rx="4" fill="#a5753f"/><rect x="5" y="8" width="36" height="46" fill="#fff"/>
    <rect x="14" y="2" width="18" height="9" rx="3" fill="#888"/>
    <path d="M10 22 H36 M10 31 H36 M10 40 H28" stroke="#9aa" stroke-width="3"/></g>
  <circle cx="120" cy="228" r="9" fill="#f1c9a5"/>
</svg>
